<svg width="10" height="17" viewBox="0 0 10 17" fill="none" xmlns="http://www.w3.org/2000/svg">
<path d="M4.68034 2.88879C5.57883 2.88879 6.30954 3.64309 6.30954 4.57061C6.30954 5.49533 5.57883 6.24963 4.68034 6.24963C3.78184 6.24963 3.05114 5.49533 3.05114 4.57061C3.05114 3.64309 3.78184 2.88879 4.68034 2.88879ZM4.68034 8.62987C6.8508 8.62987 8.61531 6.80837 8.61531 4.57061C8.61531 2.33005 6.8508 0.508545 4.68034 0.508545C2.50988 0.508545 0.748075 2.33005 0.748075 4.57061C0.748075 6.80837 2.50988 8.62987 4.68034 8.62987ZM6.27165 11.9432C7.07271 11.7532 7.84401 11.4264 8.55577 10.9654C9.09433 10.6162 9.2567 9.88146 8.91842 9.32551C8.57742 8.76676 7.86837 8.59914 7.32711 8.95115C5.71685 9.996 3.64382 9.996 2.03086 8.95115C1.49231 8.59914 0.780551 8.76676 0.442263 9.32551C0.103974 9.88146 0.266352 10.6162 0.804907 10.9654C1.51667 11.4264 2.28796 11.7532 3.08903 11.9432L0.888803 14.2117C0.439555 14.6755 0.439555 15.4298 0.888803 15.8935C1.11613 16.1254 1.40841 16.2427 1.7034 16.2427C1.99839 16.2427 2.29338 16.1254 2.52071 15.8935L4.68034 13.6641L6.84268 15.8935C7.29193 16.3601 8.01992 16.3601 8.47188 15.8935C8.92112 15.4298 8.92112 14.6755 8.47188 14.2117L6.27165 11.9432Z" fill="#030A1A"/>
</svg>
