<svg xmlns="http://www.w3.org/2000/svg" xmlns:xlink="http://www.w3.org/1999/xlink"><symbol id="icon-close" viewBox="0 0 20 20">
<path fill-rule="evenodd" clip-rule="evenodd" d="M0.177086 1.03109C-0.0587882 0.795211 -0.0587881 0.412781 0.177087 0.176905C0.412961 -0.0589705 0.79539 -0.0589706 1.03126 0.176905L10.0001 9.14577L18.9689 0.17691C19.2048 -0.0589653 19.5872 -0.0589653 19.8231 0.176911C20.059 0.412786 20.059 0.795217 19.8231 1.03109L10.8543 9.99996L19.8232 18.9689C20.0591 19.2048 20.0591 19.5872 19.8232 19.8231C19.5873 20.059 19.2049 20.059 18.969 19.8231L10.0001 10.8541L1.03118 19.8231C0.795303 20.059 0.412874 20.059 0.176999 19.8231C-0.0588753 19.5872 -0.0588755 19.2048 0.176999 18.9689L9.14592 9.99996L0.177086 1.03109Z" fill="white"/>
</symbol><symbol id="logo" viewBox="0 0 87 20">
<path d="M0.676 5.168C0.676 3.69467 1.03133 2.568 1.742 1.788C2.45267 0.990666 3.50133 0.592 4.888 0.592C6.27467 0.592 7.32333 0.990666 8.034 1.788C8.74467 2.568 9.1 3.69467 9.1 5.168V5.74H6.396V4.986C6.396 3.79 5.91933 3.192 4.966 3.192C4.01267 3.192 3.536 3.79 3.536 4.986C3.536 5.662 3.72667 6.30333 4.108 6.91C4.48933 7.49933 4.94867 8.03667 5.486 8.522C6.04067 9.00733 6.59533 9.51867 7.15 10.056C7.70467 10.576 8.17267 11.2347 8.554 12.032C8.93533 12.812 9.126 13.6787 9.126 14.632C9.126 16.1053 8.762 17.2407 8.034 18.038C7.306 18.818 6.24867 19.208 4.862 19.208C3.47533 19.208 2.418 18.818 1.69 18.038C0.962 17.2407 0.598 16.1053 0.598 14.632V13.514H3.302V14.814C3.302 15.9927 3.796 16.582 4.784 16.582C5.772 16.582 6.266 15.9927 6.266 14.814C6.266 14.138 6.07533 13.5053 5.694 12.916C5.31267 12.3093 4.84467 11.7633 4.29 11.278C3.75267 10.7927 3.20667 10.29 2.652 9.77C2.09733 9.23267 1.62933 8.574 1.248 7.794C0.866667 6.99667 0.676 6.12133 0.676 5.168ZM11.1546 0.799999H14.0146V14.84C14.0146 16.0187 14.5086 16.608 15.4966 16.608C16.4846 16.608 16.9786 16.0187 16.9786 14.84V0.799999H19.6826V14.658C19.6826 16.1313 19.3186 17.2667 18.5906 18.064C17.8626 18.844 16.8053 19.234 15.4186 19.234C14.0319 19.234 12.9746 18.844 12.2466 18.064C11.5186 17.2667 11.1546 16.1313 11.1546 14.658V0.799999ZM26.376 0.799999C29.2187 0.799999 30.64 2.29933 30.64 5.298V7.664C30.64 10.6627 29.2187 12.162 26.376 12.162H25.024V19H22.164V0.799999H26.376ZM26.376 3.4H25.024V9.562H26.376C26.844 9.562 27.1907 9.432 27.416 9.172C27.6587 8.912 27.78 8.47 27.78 7.846V5.116C27.78 4.492 27.6587 4.05 27.416 3.79C27.1907 3.53 26.844 3.4 26.376 3.4ZM35.3448 3.4V8.47H39.2708V11.07H35.3448V16.4H40.2848V19H32.4848V0.799999H40.2848V3.4H35.3448ZM51.469 19H48.557C48.3837 18.48 48.297 17.7347 48.297 16.764V13.904C48.297 13.072 48.1497 12.4827 47.855 12.136C47.5604 11.772 47.0837 11.59 46.425 11.59H45.437V19H42.577V0.799999H46.893C48.3664 0.799999 49.441 1.14667 50.117 1.84C50.793 2.516 51.131 3.56467 51.131 4.986V6.416C51.131 8.288 50.507 9.51867 49.259 10.108C50.5244 10.6453 51.157 11.9367 51.157 13.982V16.79C51.157 17.778 51.261 18.5147 51.469 19ZM46.815 3.4H45.437V8.99H46.555C47.127 8.99 47.5517 8.84267 47.829 8.548C48.1237 8.25333 48.271 7.75933 48.271 7.066V5.272C48.271 4.024 47.7857 3.4 46.815 3.4ZM57.848 11.46V8.86H61.852V14.632C61.852 16.1053 61.488 17.2407 60.76 18.038C60.032 18.818 58.9746 19.208 57.588 19.208C56.2013 19.208 55.144 18.818 54.416 18.038C53.688 17.2407 53.324 16.1053 53.324 14.632V5.168C53.324 3.69467 53.688 2.568 54.416 1.788C55.144 0.990666 56.2013 0.592 57.588 0.592C58.9746 0.592 60.032 0.990666 60.76 1.788C61.488 2.568 61.852 3.69467 61.852 5.168V6.936H59.148V4.986C59.148 3.79 58.654 3.192 57.666 3.192C56.678 3.192 56.184 3.79 56.184 4.986V14.814C56.184 15.9927 56.678 16.582 57.666 16.582C58.654 16.582 59.148 15.9927 59.148 14.814V11.46H57.848ZM66.506 19V12.968L62.892 0.799999H65.882L68.066 9.094L70.25 0.799999H72.98L69.366 12.968V19H66.506ZM78.6086 0.799999L80.7146 13.722L82.6646 0.799999H86.6426V19H83.9386V5.948L81.9626 19H79.2586L77.1266 6.13V19H74.6306V0.799999H78.6086Z" fill="white"/>
</symbol><symbol id="ok" viewBox="0 0 10 17">
<path d="M4.68034 2.88879C5.57883 2.88879 6.30954 3.64309 6.30954 4.57061C6.30954 5.49533 5.57883 6.24963 4.68034 6.24963C3.78184 6.24963 3.05114 5.49533 3.05114 4.57061C3.05114 3.64309 3.78184 2.88879 4.68034 2.88879ZM4.68034 8.62987C6.8508 8.62987 8.61531 6.80837 8.61531 4.57061C8.61531 2.33005 6.8508 0.508545 4.68034 0.508545C2.50988 0.508545 0.748075 2.33005 0.748075 4.57061C0.748075 6.80837 2.50988 8.62987 4.68034 8.62987ZM6.27165 11.9432C7.07271 11.7532 7.84401 11.4264 8.55577 10.9654C9.09433 10.6162 9.2567 9.88146 8.91842 9.32551C8.57742 8.76676 7.86837 8.59914 7.32711 8.95115C5.71685 9.996 3.64382 9.996 2.03086 8.95115C1.49231 8.59914 0.780551 8.76676 0.442263 9.32551C0.103974 9.88146 0.266352 10.6162 0.804907 10.9654C1.51667 11.4264 2.28796 11.7532 3.08903 11.9432L0.888803 14.2117C0.439555 14.6755 0.439555 15.4298 0.888803 15.8935C1.11613 16.1254 1.40841 16.2427 1.7034 16.2427C1.99839 16.2427 2.29338 16.1254 2.52071 15.8935L4.68034 13.6641L6.84268 15.8935C7.29193 16.3601 8.01992 16.3601 8.47188 15.8935C8.92112 15.4298 8.92112 14.6755 8.47188 14.2117L6.27165 11.9432Z" fill="#030A1A"/>
</symbol><symbol id="reddit" viewBox="0 0 15 15">
<path d="M8.85089 0.555664C8.40551 0.555664 7.98758 0.781596 7.71951 1.10741C7.45144 1.43323 7.30368 1.8304 7.19603 2.24897C7.02506 2.92201 6.97229 3.66877 6.95963 4.34181C5.70793 4.42505 4.57444 4.79606 3.63303 5.36921C3.25098 5.04815 2.79083 4.86978 2.34968 4.87454C1.84731 4.87929 1.37028 5.09571 1.01566 5.54044C0.338103 6.38947 0.416202 7.77836 1.20141 8.60361C1.15286 8.85808 1.11698 9.11969 1.11698 9.38367C1.11698 12.1805 3.97498 14.4446 7.49999 14.4446C11.025 14.4446 13.883 12.1781 13.883 9.38367C13.883 9.11969 13.8471 8.85808 13.7986 8.60361C14.5838 7.77836 14.6619 6.38947 13.9843 5.54044C13.6297 5.09571 13.1527 4.87929 12.6503 4.87454C12.2091 4.86978 11.749 5.04815 11.3669 5.36921C10.4298 4.79843 9.3026 4.42743 8.05723 4.34181C8.07412 3.72109 8.11845 3.07659 8.24298 2.59143C8.32108 2.28702 8.41396 2.06584 8.51316 1.94455C8.61237 1.82326 8.68414 1.77332 8.85089 1.77332C9.21183 1.77332 9.25827 1.88985 9.47568 2.17286C9.58544 2.31556 9.71209 2.49393 9.91472 2.66754C10.1174 2.84115 10.4171 2.99098 10.7421 2.99098V1.77332C10.6514 1.77332 10.6345 1.77094 10.5733 1.71624C10.5121 1.66154 10.4276 1.5355 10.3031 1.37378C10.054 1.04796 9.57066 0.555664 8.85089 0.555664ZM12.3632 0.669819C11.5231 0.669819 10.8435 1.43561 10.8435 2.38215C10.8435 3.32869 11.5231 4.09448 12.3632 4.09448C13.2033 4.09448 13.883 3.32869 13.883 2.38215C13.883 1.43561 13.2033 0.669819 12.3632 0.669819ZM12.3632 1.27865C12.9036 1.27865 13.3426 1.77332 13.3426 2.38215C13.3426 2.99098 12.9036 3.48565 12.3632 3.48565C11.8229 3.48565 11.3838 2.99098 11.3838 2.38215C11.3838 1.77332 11.8229 1.27865 12.3632 1.27865ZM7.49999 5.29311C10.491 5.29311 13.0218 7.16953 13.0218 9.38367C13.0218 11.6002 10.491 13.4742 7.49999 13.4742C4.50901 13.4742 1.97818 11.6002 1.97818 9.38367C1.97818 7.16953 4.50901 5.29311 7.49999 5.29311ZM2.36656 5.84486C2.51643 5.84724 2.67263 5.88529 2.82249 5.95901C2.28002 6.42277 1.84942 6.95549 1.55602 7.55719C1.35339 7.0863 1.40827 6.49887 1.65734 6.18732C1.83887 5.95901 2.09005 5.84248 2.36656 5.84486ZM12.6334 5.84486C12.9099 5.84248 13.1611 5.95901 13.3426 6.18732C13.5917 6.49887 13.6466 7.0863 13.4439 7.55719C13.1506 6.95549 12.72 6.42277 12.1775 5.95901C12.3273 5.88529 12.4835 5.84724 12.6334 5.84486ZM5.33855 7.36693C4.79819 7.36693 4.35914 7.8616 4.35914 8.47043C4.35914 9.07926 4.79819 9.57393 5.33855 9.57393C5.87891 9.57393 6.31795 9.07926 6.31795 8.47043C6.31795 7.8616 5.87891 7.36693 5.33855 7.36693ZM9.66143 7.36693C9.12107 7.36693 8.68202 7.8616 8.68202 8.47043C8.68202 9.07926 9.12107 9.57393 9.66143 9.57393C10.2018 9.57393 10.6408 9.07926 10.6408 8.47043C10.6408 7.8616 10.2018 7.36693 9.66143 7.36693ZM4.81507 11.115C5.15913 11.9165 6.22296 12.6942 7.49999 12.6942C8.77701 12.6942 9.85773 11.9165 10.2018 11.115C9.577 11.5693 8.59126 11.8761 7.49999 11.8761C6.40871 11.8761 5.43986 11.5693 4.81507 11.115Z" fill="#030A1A"/>
</symbol><symbol id="rub" viewBox="0 0 30 42">
<path fill-rule="evenodd" clip-rule="evenodd" d="M0 17H6V23H0V17Z" fill="#102654"/>
<path fill-rule="evenodd" clip-rule="evenodd" d="M3.65854 28.3214V18H9.65854V28.3214H21V34.3214H9.65854V42H3.65854V34.3214H0V28.3214H3.65854Z" fill="#102654"/>
<path fill-rule="evenodd" clip-rule="evenodd" d="M18.5 6H10V17H18.5C21.5376 17 24 14.5376 24 11.5C24 8.46243 21.5376 6 18.5 6ZM4 0V23H18.5C24.8513 23 30 17.8513 30 11.5C30 5.14873 24.8513 0 18.5 0H4Z" fill="#102654"/>
</symbol><symbol id="triangle" viewBox="0 0 13 15">
<path d="M13 7.5L0.249999 14.8612L0.25 0.138783L13 7.5Z" fill="white"/>
</symbol><symbol id="vk" viewBox="0 0 13 8">
<path d="M7.72274 6.05176C8.16542 5.90867 8.73219 6.99638 9.33555 7.41267C9.78841 7.728 10.1352 7.65993 10.1352 7.65993L11.7434 7.63678C11.7434 7.63678 12.5839 7.58492 12.1866 6.9172C12.1537 6.86163 11.9536 6.4222 10.9896 5.51786C9.9815 4.57185 10.1181 4.72512 11.3318 3.08962C12.0713 2.09267 12.3671 1.48376 12.2745 1.22445C12.1856 0.974862 11.6425 1.03969 11.6425 1.03969L9.83055 1.05219C9.65413 1.05265 9.50456 1.10729 9.43649 1.29066C9.4351 1.29252 9.14894 2.06211 8.76738 2.7164C7.96121 4.10046 7.63939 4.17408 7.50603 4.08749C7.19995 3.88699 7.27728 3.28317 7.27728 2.85392C7.27728 1.51246 7.47732 0.953099 6.88554 0.808627C6.68782 0.760469 6.54335 0.728982 6.03908 0.724351C5.39452 0.714627 4.84719 0.724351 4.53695 0.876695C4.33089 0.979956 4.17299 1.20639 4.26884 1.21935C4.38923 1.23556 4.65919 1.29344 4.80366 1.4907C4.98935 1.74631 4.98379 2.3191 4.98379 2.3191C4.98379 2.3191 5.08983 3.89857 4.73374 4.09444C4.48925 4.22872 4.15493 3.9546 3.43581 2.69788C3.06861 2.05516 2.79124 1.34484 2.79124 1.34484C2.79124 1.34484 2.73753 1.21287 2.64029 1.14063C2.52452 1.05497 2.36246 1.02765 2.36246 1.02765L0.642684 1.03876C0.642684 1.03876 0.384301 1.04617 0.289376 1.16008C0.205101 1.26103 0.28243 1.4694 0.28243 1.4694C0.28243 1.4694 1.62945 4.65566 3.15474 6.26059C4.55315 7.73402 6.14234 7.63632 6.14234 7.63632H6.86239C6.86239 7.63632 7.07956 7.61131 7.19069 7.49185C7.29442 7.38071 7.28979 7.17188 7.28979 7.17188C7.28979 7.17188 7.27543 6.1953 7.72274 6.05176Z" fill="#030A1A"/>
</symbol></svg>