<svg width="13" height="8" viewBox="0 0 13 8" fill="none" xmlns="http://www.w3.org/2000/svg">
<path d="M7.72274 6.05176C8.16542 5.90867 8.73219 6.99638 9.33555 7.41267C9.78841 7.728 10.1352 7.65993 10.1352 7.65993L11.7434 7.63678C11.7434 7.63678 12.5839 7.58492 12.1866 6.9172C12.1537 6.86163 11.9536 6.4222 10.9896 5.51786C9.9815 4.57185 10.1181 4.72512 11.3318 3.08962C12.0713 2.09267 12.3671 1.48376 12.2745 1.22445C12.1856 0.974862 11.6425 1.03969 11.6425 1.03969L9.83055 1.05219C9.65413 1.05265 9.50456 1.10729 9.43649 1.29066C9.4351 1.29252 9.14894 2.06211 8.76738 2.7164C7.96121 4.10046 7.63939 4.17408 7.50603 4.08749C7.19995 3.88699 7.27728 3.28317 7.27728 2.85392C7.27728 1.51246 7.47732 0.953099 6.88554 0.808627C6.68782 0.760469 6.54335 0.728982 6.03908 0.724351C5.39452 0.714627 4.84719 0.724351 4.53695 0.876695C4.33089 0.979956 4.17299 1.20639 4.26884 1.21935C4.38923 1.23556 4.65919 1.29344 4.80366 1.4907C4.98935 1.74631 4.98379 2.3191 4.98379 2.3191C4.98379 2.3191 5.08983 3.89857 4.73374 4.09444C4.48925 4.22872 4.15493 3.9546 3.43581 2.69788C3.06861 2.05516 2.79124 1.34484 2.79124 1.34484C2.79124 1.34484 2.73753 1.21287 2.64029 1.14063C2.52452 1.05497 2.36246 1.02765 2.36246 1.02765L0.642684 1.03876C0.642684 1.03876 0.384301 1.04617 0.289376 1.16008C0.205101 1.26103 0.28243 1.4694 0.28243 1.4694C0.28243 1.4694 1.62945 4.65566 3.15474 6.26059C4.55315 7.73402 6.14234 7.63632 6.14234 7.63632H6.86239C6.86239 7.63632 7.07956 7.61131 7.19069 7.49185C7.29442 7.38071 7.28979 7.17188 7.28979 7.17188C7.28979 7.17188 7.27543 6.1953 7.72274 6.05176Z" fill="#030A1A"/>
</svg>
